<svg xmlns="http://www.w3.org/2000/svg" viewBox="0 0 640 400" width="640" height="400"><rect width="640" height="400" fill="#0d1015"/><path d="M0,180 Q160,150 320,190 T640,170" fill="none" stroke="#3d4655" stroke-width="1"/><path d="M0,202 Q160,174 320,210 T640,192" fill="none" stroke="#3d4655" stroke-width="1"/><path d="M0,224 Q160,198 320,230 T640,214" fill="none" stroke="#3d4655" stroke-width="1"/><path d="M0,246 Q160,222 320,250 T640,236" fill="none" stroke="#3d4655" stroke-width="1"/><path d="M0,268 Q160,246 320,270 T640,258" fill="none" stroke="#3d4655" stroke-width="1"/><path d="M0,290 Q160,270 320,290 T640,280" fill="none" stroke="#3d4655" stroke-width="1"/><path d="M0,312 Q160,294 320,310 T640,302" fill="none" stroke="#3d4655" stroke-width="1"/><path d="M0,334 Q160,318 320,330 T640,324" fill="none" stroke="#3d4655" stroke-width="1"/><line x1="0" y1="160" x2="-64.0" y2="350" stroke="#2a313c"/><line x1="48" y1="160" x2="-6.400000000000006" y2="350" stroke="#2a313c"/><line x1="96" y1="160" x2="51.19999999999999" y2="350" stroke="#2a313c"/><line x1="144" y1="160" x2="108.79999999999998" y2="350" stroke="#2a313c"/><line x1="192" y1="160" x2="166.39999999999998" y2="350" stroke="#2a313c"/><line x1="240" y1="160" x2="224.0" y2="350" stroke="#2a313c"/><line x1="288" y1="160" x2="281.59999999999997" y2="350" stroke="#2a313c"/><line x1="336" y1="160" x2="339.2" y2="350" stroke="#2a313c"/><line x1="384" y1="160" x2="396.79999999999995" y2="350" stroke="#2a313c"/><line x1="432" y1="160" x2="454.4" y2="350" stroke="#2a313c"/><line x1="480" y1="160" x2="512.0" y2="350" stroke="#2a313c"/><line x1="528" y1="160" x2="569.6" y2="350" stroke="#2a313c"/><line x1="576" y1="160" x2="627.1999999999999" y2="350" stroke="#2a313c"/><line x1="624" y1="160" x2="684.8" y2="350" stroke="#2a313c"/><line x1="672" y1="160" x2="742.4" y2="350" stroke="#2a313c"/><text x="24" y="376" font-family="monospace" font-size="13" fill="#8a909c">[YOUR_SCREENSHOT] · Scene build</text></svg>